<?xml version="1.0" encoding="utf-8"?>
<!-- Generator: Adobe Illustrator 19.0.1, SVG Export Plug-In . SVG Version: 6.00 Build 0)  -->
<svg version="1.1" id="Layer_1" xmlns="http://www.w3.org/2000/svg" xmlns:xlink="http://www.w3.org/1999/xlink" x="0px" y="0px"
	 viewBox="0 0 65.1 65" enable-background="new 0 0 65.1 65" xml:space="preserve">
<g>
	<path fill="#D772B9" d="M32.7,65.1L32.7,65.1C32.7,65,32.7,65,32.7,65.1C32.7,65,32.7,65.1,32.7,65.1L32.7,65.1z"/>
	<path fill="#3F3060" d="M55.6,55.4c5.8-5.9,9.4-14,9.4-22.9l0,0H32.7L55.6,55.4z"/>
	<path fill="#D772B9" d="M32.5,65.1L32.5,65.1C32.6,65.1,32.6,65,32.5,65.1C32.6,65,32.6,65,32.5,65.1L32.5,65.1z"/>
	<path fill="#D772B9" d="M32.7,65c9-0.1,17.1-3.7,22.9-9.6L32.7,32.5V65z"/>
	<path fill="#D772B9" d="M32.7,32.5h-0.2V65c0,0,0.1,0,0.1,0c0,0,0.1,0,0.1,0V32.5z"/>
	<path fill="#4F4DB8" d="M65.1,32.5c0-8.9-3.6-17-9.4-22.9L32.7,32.5H65.1z"/>
	<path fill="#00D3F9" d="M0.2,32.5L0.2,32.5c0,17.9,14.5,32.4,32.3,32.5V32.5h0.2L55.6,9.6C49.7,3.7,41.6,0,32.5,0h0
		C14.6,0,0,14.6,0,32.5H0.2z"/>
</g>
</svg>
